<svg xmlns="http://www.w3.org/2000/svg" width="96" height="96" viewBox="0 0 96 96">
  <rect width="96" height="96" rx="12" fill="#fff9e6" />
  <g stroke="#4d3b8f" stroke-width="4" stroke-linejoin="round">
    <path d="M22 68c0-12 12-22 26-22s26 10 26 22H22z" fill="#f8bcd4" />
    <path d="M26 56h44" stroke="#fff9e6" stroke-width="3" stroke-linecap="round" />
    <path d="M28 46h40" fill="none" />
    <path d="M30 42c0-6 8-12 18-12s18 6 18 12" fill="#fff0c6" />
    <path d="M34 30c0-4 4-8 14-8s14 4 14 8" fill="#f7e3a7" />
  </g>
  <g stroke="#f48fb1" stroke-width="4" stroke-linecap="round">
    <path d="M26 62c14 10 30 10 44 0" fill="none" />
    <path d="M28 50c8 6 20 6 32 0" fill="none" />
  </g>
  <g stroke="#f7c873" stroke-width="4" stroke-linecap="round">
    <path d="M34 24v-8" />
    <path d="M48 20v-8" />
    <path d="M62 24v-8" />
  </g>
  <g fill="#f7c873" stroke="#e0943f" stroke-width="2">
    <circle cx="34" cy="14" r="4" />
    <circle cx="48" cy="10" r="4" />
    <circle cx="62" cy="14" r="4" />
  </g>
  <g fill="#c1f0d9">
    <circle cx="26" cy="72" r="4" />
    <circle cx="40" cy="76" r="4" />
    <circle cx="54" cy="74" r="4" />
    <circle cx="68" cy="72" r="4" />
  </g>
</svg>
