<svg xmlns="http://www.w3.org/2000/svg" width="96" height="96" viewBox="0 0 96 96">
  <rect width="96" height="96" rx="12" fill="#fff9e6" />
  <g stroke="#4d3b8f" stroke-width="4" stroke-linejoin="round">
    <path d="M24 58c0-12 12-22 24-22s24 10 24 22c0 10-10 18-24 18s-24-8-24-18z" fill="#f8d8ef" />
    <path d="M34 44c6-6 18-6 24 0" fill="none" />
    <path d="M30 60c14 6 22 6 36 0" fill="none" />
  </g>
  <g fill="#92d7b4" stroke="#4d3b8f" stroke-width="3" stroke-linecap="round">
    <path d="M26 34c2-6 6-10 10-12 0 6-2 10-6 14l-4-2z" />
    <path d="M70 34c-2-6-6-10-10-12 0 6 2 10 6 14l4-2z" />
    <circle cx="48" cy="30" r="6" />
  </g>
  <path d="M32 70c10 4 20 4 32 0" fill="none" stroke="#d394d9" stroke-width="4" stroke-linecap="round" />
</svg>
