<svg xmlns="http://www.w3.org/2000/svg" width="96" height="96" viewBox="0 0 96 96">
  <rect width="96" height="96" rx="12" fill="#fff9e6" />
  <rect x="14" y="18" width="68" height="52" rx="12" fill="#fbd88f" stroke="#e2a639" stroke-width="4" />
  <path d="M34 38c10-10 28-10 38 0-6 4-6 8 0 12-10 10-28 10-38 0-4 2-8 2-12 0 4-4 4-8 0-12 4-2 8-2 12 0z" fill="#f7b040" stroke="#d1802e" stroke-width="4" stroke-linejoin="round" />
  <circle cx="58" cy="44" r="4" fill="#4d3b8f" />
  <path d="M20 32l10 8-10 8" fill="#fbd88f" stroke="#e2a639" stroke-width="4" stroke-linecap="round" stroke-linejoin="round" />
  <path d="M76 32l-10 8 10 8" fill="#fbd88f" stroke="#e2a639" stroke-width="4" stroke-linecap="round" stroke-linejoin="round" />
  <path d="M36 64c8 6 16 6 24 0" fill="none" stroke="#e2a639" stroke-width="4" stroke-linecap="round" />
</svg>
