<svg xmlns="http://www.w3.org/2000/svg" width="96" height="96" viewBox="0 0 96 96">
  <rect width="96" height="96" rx="12" fill="#fff9e6" />
  <g stroke="#d68a33" stroke-width="4" stroke-linejoin="round">
    <path d="M22 60c0-14 12-28 26-28s26 14 26 28-12 20-26 20-26-6-26-20z" fill="#f4c98a" />
    <path d="M32 38c10 8 20 8 30 0" fill="none" />
    <path d="M28 52c12 8 24 8 36 0" fill="none" />
  </g>
  <path d="M30 64c10 6 18 6 28 0" fill="none" stroke="#f7e3a7" stroke-width="4" stroke-linecap="round" />
  <path d="M24 46l-6-8" fill="none" stroke="#d68a33" stroke-width="4" stroke-linecap="round" />
  <path d="M72 46l6-8" fill="none" stroke="#d68a33" stroke-width="4" stroke-linecap="round" />
  <path d="M28 32c0-6 6-12 20-12s20 6 20 12" fill="#f7d9a6" stroke="#d68a33" stroke-width="4" stroke-linejoin="round" />
</svg>
